<svg width="24" height="24" viewBox="0 0 24 24" fill="none" xmlns="http://www.w3.org/2000/svg">
<path fill-rule="evenodd" clip-rule="evenodd" d="M7.63702 3.39549C5.06002 3.39549 3.39502 5.16249 3.39502 7.88849V16.1025C3.39502 16.8675 3.53702 17.5505 3.78002 18.1415C3.79052 18.129 4.01937 17.8501 4.31791 17.4863C4.90139 16.7752 5.75107 15.7398 5.75702 15.7345C6.44902 14.9445 7.74802 13.7665 9.45302 14.4795C9.82664 14.6344 10.1587 14.8466 10.4644 15.042C10.4942 15.061 10.5237 15.0799 10.553 15.0985C11.126 15.4815 11.463 15.6615 11.813 15.6315C11.958 15.6115 12.094 15.5685 12.223 15.4885C12.7097 15.1885 13.9713 13.4009 14.3491 12.8656C14.4045 12.7871 14.4409 12.7355 14.453 12.7195C15.543 11.2995 17.223 10.9195 18.623 11.7595C18.811 11.8715 20.158 12.8125 20.604 13.1905V7.88849C20.604 5.16249 18.939 3.39549 16.353 3.39549H7.63702ZM16.353 2.00049C19.73 2.00049 21.999 4.36249 21.999 7.88849V16.1025C21.999 16.1912 21.9897 16.2743 21.9804 16.3574C21.9739 16.4159 21.9673 16.4742 21.964 16.5345C21.9619 16.5709 21.9608 16.6073 21.9598 16.6438C21.9584 16.6923 21.957 16.7409 21.953 16.7895C21.951 16.8085 21.9473 16.8267 21.9435 16.845C21.9398 16.8632 21.936 16.8815 21.934 16.9005C21.901 17.2145 21.85 17.5145 21.779 17.8055C21.7622 17.8782 21.7429 17.9483 21.7233 18.0191L21.719 18.0345C21.639 18.3165 21.545 18.5855 21.432 18.8425C21.4122 18.8857 21.3913 18.9278 21.3705 18.9699C21.3565 18.998 21.3426 19.0261 21.329 19.0545C21.207 19.2995 21.075 19.5345 20.922 19.7525C20.8937 19.7928 20.8636 19.8307 20.8334 19.8685C20.8135 19.8936 20.7935 19.9186 20.774 19.9445C20.615 20.1505 20.449 20.3475 20.261 20.5265C20.2235 20.5622 20.1829 20.5948 20.1424 20.6275C20.117 20.6479 20.0916 20.6683 20.067 20.6895C19.874 20.8555 19.677 21.0145 19.46 21.1505C19.4127 21.1802 19.3624 21.2052 19.3122 21.2301C19.2798 21.2462 19.2474 21.2622 19.216 21.2795C18.995 21.4015 18.772 21.5205 18.529 21.6125C18.4706 21.6347 18.4083 21.6508 18.346 21.6669C18.3016 21.6783 18.2572 21.6898 18.214 21.7035C18.1924 21.7102 18.1708 21.7169 18.1492 21.7236C17.9321 21.7912 17.7158 21.8585 17.482 21.8985C17.3466 21.9222 17.2029 21.9313 17.0591 21.9405C16.9969 21.9444 16.9346 21.9484 16.873 21.9535C16.8068 21.9584 16.7419 21.9664 16.6769 21.9744C16.5711 21.9874 16.4651 22.0005 16.353 22.0005H7.63702C7.26102 22.0005 6.90202 21.9625 6.55502 21.9055C6.54202 21.9035 6.53002 21.9015 6.51802 21.8995C5.16502 21.6665 4.04202 21.0135 3.25502 20.0285C3.24956 20.0285 3.24741 20.0248 3.24455 20.0199C3.2427 20.0167 3.24056 20.013 3.23702 20.0095C2.44602 19.0135 1.99902 17.6745 1.99902 16.1025V7.88849C1.99902 4.36249 4.27002 2.00049 7.63702 2.00049H16.353ZM10.9996 8.51505C10.9996 9.87 9.8659 11.0001 8.50447 11.0001C7.30776 11.0001 6.28741 10.1257 6.05873 8.99372C6.02094 8.82387 5.99962 8.64919 5.99962 8.46872C5.99962 7.10412 7.10815 6.00009 8.47831 6.00009C9.17598 6.00009 9.80776 6.29347 10.2603 6.76152C10.7147 7.21317 10.9996 7.83564 10.9996 8.51505Z" fill="#130F26"/>
</svg>
