<svg width="24" height="24" viewBox="0 0 24 24" fill="none" xmlns="http://www.w3.org/2000/svg">
<path fill-rule="evenodd" clip-rule="evenodd" d="M7.67 1.99902H16.34C19.73 1.99902 22 4.37902 22 7.91902V16.09C22 19.62 19.73 21.999 16.34 21.999H7.67C4.28 21.999 2 19.62 2 16.09V7.91902C2 4.37902 4.28 1.99902 7.67 1.99902ZM11.99 9.06002C11.52 9.06002 11.13 8.66902 11.13 8.19002C11.13 7.70002 11.52 7.31002 12.01 7.31002C12.49 7.31002 12.88 7.70002 12.88 8.19002C12.88 8.66902 12.49 9.06002 11.99 9.06002ZM12.87 15.78C12.87 16.26 12.48 16.65 11.99 16.65C11.51 16.65 11.12 16.26 11.12 15.78V11.36C11.12 10.879 11.51 10.48 11.99 10.48C12.48 10.48 12.87 10.879 12.87 11.36V15.78Z" fill="#130F26"/>
</svg>
