<svg width="24" height="24" viewBox="0 0 24 24" fill="none" xmlns="http://www.w3.org/2000/svg">
<path opacity="0.4" d="M2 12C2 6.485 6.486 2 12 2C17.514 2 22 6.485 22 12C22 17.514 17.514 22 12 22C6.486 22 2 17.514 2 12Z" fill="#130F26"/>
<path d="M7.77893 13.4425C7.77893 13.2515 7.85193 13.0595 7.99793 12.9135L11.4679 9.42652C11.6089 9.28552 11.7999 9.20652 11.9999 9.20652C12.1989 9.20652 12.3899 9.28552 12.5309 9.42652L16.0029 12.9135C16.2949 13.2065 16.2949 13.6805 16.0009 13.9735C15.7069 14.2655 15.2319 14.2645 14.9399 13.9715L11.9999 11.0185L9.05993 13.9715C8.76793 14.2645 8.29393 14.2655 7.99993 13.9735C7.85193 13.8275 7.77893 13.6345 7.77893 13.4425Z" fill="#130F26"/>
</svg>
