<svg width="24" height="24" viewBox="0 0 24 24" fill="none" xmlns="http://www.w3.org/2000/svg">
<path opacity="0.4" d="M11.3407 20.289L11.3407 11.811C11.3407 11.4188 11.659 11.1005 12.0512 11.1005C12.4434 11.1005 12.7617 11.4188 12.7617 11.811L12.7617 20.289C12.7617 20.6812 12.4434 20.9995 12.0512 20.9995C11.659 20.9995 11.3407 20.6812 11.3407 20.289Z" fill="#130F26"/>
<mask id="mask0_2_21210" style="mask-type:luminance" maskUnits="userSpaceOnUse" x="6" y="3" width="12" height="10">
<path fill-rule="evenodd" clip-rule="evenodd" d="M17.5 12.5215L6.6036 12.5215L6.6036 3.58202L17.5 3.58202V12.5215Z" fill="white"/>
</mask>
<g mask="url(#mask0_2_21210)">
<path d="M6.60332 11.811C6.60332 11.6783 6.64027 11.5476 6.71227 11.432L11.4501 3.9137C11.5808 3.70717 11.8072 3.58117 12.0516 3.58117C12.2961 3.58117 12.5225 3.70717 12.6532 3.9137L17.391 11.432C17.5284 11.6509 17.5369 11.9275 17.4109 12.1539C17.2858 12.3813 17.0481 12.5215 16.7894 12.5215L7.31384 12.5215C7.05521 12.5215 6.81742 12.3813 6.69237 12.1539C6.63269 12.0469 6.60332 11.9284 6.60332 11.811Z" fill="#130F26"/>
</g>
</svg>
