<svg width="24" height="24" viewBox="0 0 24 24" fill="none" xmlns="http://www.w3.org/2000/svg">
<path opacity="0.4" d="M3.71053 11.3412H12.1885C12.5807 11.3412 12.8991 11.6595 12.8991 12.0517C12.8991 12.4439 12.5807 12.7622 12.1885 12.7622H3.71053C3.31832 12.7622 3 12.4439 3 12.0517C3 11.6595 3.31832 11.3412 3.71053 11.3412Z" fill="#130F26"/>
<mask id="mask0_2_21205" style="mask-type:luminance" maskUnits="userSpaceOnUse" x="11" y="6" width="10" height="12">
<path fill-rule="evenodd" clip-rule="evenodd" d="M11.4785 17.5V6.6036H20.418V17.5H11.4785Z" fill="white"/>
</mask>
<g mask="url(#mask0_2_21205)">
<path d="M12.189 6.60332C12.3217 6.60332 12.4524 6.64027 12.568 6.71227L20.0863 11.4501C20.2928 11.5808 20.4188 11.8072 20.4188 12.0516C20.4188 12.2961 20.2928 12.5225 20.0863 12.6532L12.568 17.391C12.3491 17.5284 12.0725 17.5369 11.8461 17.4109C11.6187 17.2858 11.4785 17.0481 11.4785 16.7894V7.31384C11.4785 7.05521 11.6187 6.81742 11.8461 6.69237C11.9531 6.63269 12.0716 6.60332 12.189 6.60332Z" fill="#130F26"/>
</g>
</svg>
