<svg width="24" height="24" viewBox="0 0 24 24" fill="none" xmlns="http://www.w3.org/2000/svg">
<path opacity="0.4" d="M12 22C6.485 22 2 17.514 2 12C2 6.486 6.485 2 12 2C17.514 2 22 6.486 22 12C22 17.514 17.514 22 12 22Z" fill="#130F26"/>
<path d="M13.442 16.2206C13.251 16.2206 13.059 16.1476 12.913 16.0016L9.42603 12.5316C9.28503 12.3906 9.20603 12.1996 9.20603 11.9996C9.20603 11.8006 9.28503 11.6096 9.42603 11.4686L12.913 7.99658C13.206 7.70458 13.68 7.70458 13.973 7.99858C14.265 8.29258 14.264 8.76758 13.971 9.05958L11.018 11.9996L13.971 14.9396C14.264 15.2316 14.265 15.7056 13.973 15.9996C13.827 16.1476 13.634 16.2206 13.442 16.2206Z" fill="#130F26"/>
</svg>
