<svg width="24" height="24" viewBox="0 0 24 24" fill="none" xmlns="http://www.w3.org/2000/svg">
<path opacity="0.4" d="M7.916 22H16.084C19.623 22 22 19.724 22 16.335V7.665C22 4.276 19.623 2 16.084 2H7.916C4.378 2 2 4.277 2 7.666L2 16.335C2 19.724 4.378 22 7.916 22Z" fill="#130F26"/>
<path d="M12.8559 16.2792L16.6209 12.5312C16.9039 12.2492 16.9039 11.7502 16.6209 11.4672L12.8559 7.71918C12.5619 7.42718 12.0869 7.42818 11.7949 7.72218C11.5029 8.01618 11.5029 8.49018 11.7969 8.78318L14.2739 11.2502H7.91895C7.50395 11.2502 7.16895 11.5862 7.16895 12.0002C7.16895 12.4142 7.50395 12.7502 7.91895 12.7502H14.2739L11.7969 15.2162C11.6499 15.3632 11.5769 15.5552 11.5769 15.7482C11.5769 15.9392 11.6499 16.1312 11.7949 16.2772C12.0869 16.5702 12.5619 16.5712 12.8559 16.2792Z" fill="#130F26"/>
</svg>
