<svg width="24" height="24" viewBox="0 0 24 24" fill="none" xmlns="http://www.w3.org/2000/svg">
<path opacity="0.4" d="M12.6593 3.71101V12.189C12.6593 12.5812 12.341 12.8995 11.9488 12.8995C11.5566 12.8995 11.2383 12.5812 11.2383 12.189V3.71101C11.2383 3.3188 11.5566 3.00049 11.9488 3.00049C12.341 3.00049 12.6593 3.3188 12.6593 3.71101Z" fill="#130F26"/>
<mask id="mask0_2_21220" style="mask-type:luminance" maskUnits="userSpaceOnUse" x="6" y="11" width="12" height="10">
<path fill-rule="evenodd" clip-rule="evenodd" d="M6.5 11.4785H17.3964V20.418H6.5V11.4785Z" fill="white"/>
</mask>
<g mask="url(#mask0_2_21220)">
<path d="M17.3967 12.189C17.3967 12.3217 17.3597 12.4524 17.2877 12.568L12.5499 20.0863C12.4192 20.2928 12.1928 20.4188 11.9484 20.4188C11.7039 20.4188 11.4775 20.2928 11.3468 20.0863L6.609 12.568C6.47163 12.3491 6.4631 12.0725 6.5891 11.8461C6.71416 11.6187 6.95195 11.4785 7.21058 11.4785H16.6862C16.9448 11.4785 17.1826 11.6187 17.3076 11.8461C17.3673 11.9531 17.3967 12.0716 17.3967 12.189Z" fill="#130F26"/>
</g>
</svg>
