<svg width="24" height="24" viewBox="0 0 24 24" fill="none" xmlns="http://www.w3.org/2000/svg">
<path opacity="0.4" d="M22 16.084V7.916C22 4.377 19.724 2 16.335 2H7.665C4.276 2 2 4.377 2 7.916V16.084C2 19.622 4.277 22 7.666 22H16.335C19.724 22 22 19.622 22 16.084Z" fill="#130F26"/>
<path d="M16.2797 11.1445L12.5317 7.37954C12.2497 7.09654 11.7507 7.09654 11.4677 7.37954L7.71967 11.1445C7.42767 11.4385 7.42867 11.9135 7.72267 12.2055C8.01667 12.4975 8.49067 12.4975 8.78367 12.2035L11.2507 9.72654V16.0815C11.2507 16.4965 11.5867 16.8315 12.0007 16.8315C12.4147 16.8315 12.7507 16.4965 12.7507 16.0815V9.72654L15.2167 12.2035C15.3637 12.3505 15.5557 12.4235 15.7487 12.4235C15.9397 12.4235 16.1317 12.3505 16.2777 12.2055C16.5707 11.9135 16.5717 11.4385 16.2797 11.1445Z" fill="#130F26"/>
</svg>
