<svg width="24" height="24" viewBox="0 0 24 24" fill="none" xmlns="http://www.w3.org/2000/svg">
<path opacity="0.4" d="M16.084 2L7.916 2C4.377 2 2 4.276 2 7.665L2 16.335C2 19.724 4.377 22 7.916 22L16.084 22C19.622 22 22 19.723 22 16.334L22 7.665C22 4.276 19.622 2 16.084 2Z" fill="#130F26"/>
<path d="M11.1441 7.72082L7.37906 11.4688C7.09606 11.7508 7.09606 12.2498 7.37906 12.5328L11.1441 16.2808C11.4381 16.5728 11.9131 16.5718 12.2051 16.2778C12.4971 15.9838 12.4971 15.5098 12.2031 15.2168L9.72605 12.7498H16.0811C16.4961 12.7498 16.8311 12.4138 16.8311 11.9998C16.8311 11.5858 16.4961 11.2498 16.0811 11.2498L9.72605 11.2498L12.2031 8.78382C12.3501 8.63682 12.4231 8.44482 12.4231 8.25182C12.4231 8.06082 12.3501 7.86882 12.2051 7.72282C11.9131 7.42982 11.4381 7.42882 11.1441 7.72082Z" fill="#130F26"/>
</svg>
