<svg width="24" height="24" viewBox="0 0 24 24" fill="none" xmlns="http://www.w3.org/2000/svg">
<path d="M16.7857 10.8672L9.93756 15.0865C9.78418 15.1805 9.58782 15.1715 9.44422 15.0605C8.7936 14.5594 8.21234 14.0514 7.82451 13.6244C7.82451 13.6244 7.49041 13.2824 7.34582 13.0654C7.11234 12.7693 7 12.3823 7 12.0063C7 11.5843 7.12309 11.1853 7.36829 10.8662C7.42398 10.8092 7.63597 10.5582 7.83623 10.3532C9.00461 9.07715 12.0545 6.96905 13.6586 6.33002C13.8921 6.22701 14.5153 6.012 14.8387 6C15.1503 6 15.4512 6.068 15.7404 6.21701C16.096 6.42202 16.3744 6.74004 16.5307 7.11706C16.6313 7.37907 16.7866 8.16511 16.7866 8.18811C16.8873 8.74914 16.9625 9.53718 16.9996 10.4572C17.0064 10.6222 16.9234 10.7822 16.7857 10.8672Z" fill="#130F26"/>
<path opacity="0.4" d="M16.3275 13.14C16.6293 12.953 17.0094 13.192 16.9947 13.551C16.9586 14.393 16.896 15.1351 16.8198 15.6871C16.8081 15.6991 16.6528 16.6781 16.474 17.0092C16.1624 17.6242 15.5508 18.0002 14.8934 18.0002H14.8387C14.4147 17.9892 13.513 17.6132 13.513 17.5902C13.0588 17.4012 12.4658 17.0812 11.8279 16.6961C11.5406 16.5221 11.5338 16.0951 11.821 15.9181L16.3275 13.14Z" fill="#130F26"/>
</svg>
