<svg width="24" height="24" viewBox="0 0 24 24" fill="none" xmlns="http://www.w3.org/2000/svg">
<path opacity="0.4" d="M12 2C17.515 2 22 6.486 22 12C22 17.514 17.515 22 12 22C6.486 22 2 17.514 2 12C2 6.486 6.486 2 12 2Z" fill="#130F26"/>
<path d="M10.558 7.77942C10.749 7.77942 10.941 7.85242 11.087 7.99842L14.574 11.4684C14.715 11.6094 14.794 11.8004 14.794 12.0004C14.794 12.1994 14.715 12.3904 14.574 12.5314L11.087 16.0034C10.794 16.2954 10.32 16.2954 10.027 16.0014C9.73497 15.7074 9.73597 15.2324 10.029 14.9404L12.982 12.0004L10.029 9.06042C9.73597 8.76842 9.73497 8.29442 10.027 8.00042C10.173 7.85242 10.366 7.77942 10.558 7.77942Z" fill="#130F26"/>
</svg>
