<svg width="24" height="24" viewBox="0 0 24 24" fill="none" xmlns="http://www.w3.org/2000/svg">
<path opacity="0.4" d="M2 7.809L2 16.19C2 19.23 3.78 21 6.83 21H17.16C20.26 21 22 19.23 22 16.19V7.809C22 4.72 20.26 3 17.16 3H6.83C3.78 3 2 4.72 2 7.809Z" fill="#130F26"/>
<path d="M17.0356 15.6505H6.97046C6.51377 15.6505 6.14355 15.281 6.14355 14.8252C6.14355 14.3695 6.51377 14 6.97046 14H17.1156C17.3619 14.0028 17.5925 14.1211 17.738 14.3194C17.8645 14.467 17.9284 14.658 17.9159 14.8518C17.9089 15.0723 17.8138 15.2809 17.6518 15.4309C17.4897 15.581 17.2742 15.66 17.0534 15.6505H17.0356Z" fill="#130F26"/>
<path d="M8.88849 8.65045H6.82664C6.3701 8.65045 6 8.28098 6 7.82523C6 7.36947 6.3701 7 6.82664 7H8.96849C9.21469 7.00279 9.44521 7.12114 9.59069 7.31944C9.71716 7.46701 9.78095 7.65803 9.76846 7.85185C9.76154 8.07235 9.66647 8.2809 9.50447 8.43095C9.34248 8.581 9.12705 8.66005 8.90627 8.65045H8.88849Z" fill="#130F26"/>
</svg>
