<svg width="24" height="24" viewBox="0 0 24 24" fill="none" xmlns="http://www.w3.org/2000/svg">
<path opacity="0.4" fill-rule="evenodd" clip-rule="evenodd" d="M5.91016 20.5884C5.91016 19.7484 6.59016 19.0684 7.43016 19.0684C8.26016 19.0684 8.94016 19.7484 8.94016 20.5884C8.94016 21.4184 8.26016 22.0984 7.43016 22.0984C6.59016 22.0984 5.91016 21.4184 5.91016 20.5884ZM17.1602 20.5884C17.1602 19.7484 17.8402 19.0684 18.6802 19.0684C19.5102 19.0684 20.1902 19.7484 20.1902 20.5884C20.1902 21.4184 19.5102 22.0984 18.6802 22.0984C17.8402 22.0984 17.1602 21.4184 17.1602 20.5884Z" fill="#130F26"/>
<path fill-rule="evenodd" clip-rule="evenodd" d="M20.1907 6.34884C20.8007 6.34884 21.2007 6.55884 21.6007 7.01884C22.0007 7.47884 22.0707 8.13884 21.9807 8.73784L21.0307 15.2978C20.8507 16.5588 19.7707 17.4878 18.5007 17.4878H7.59074C6.26074 17.4878 5.16074 16.4678 5.05074 15.1488L4.13074 4.24784L2.62074 3.98784C2.22074 3.91784 1.94074 3.52784 2.01074 3.12784C2.08074 2.71784 2.47074 2.44784 2.88074 2.50784L5.26574 2.86784C5.60574 2.92884 5.85574 3.20784 5.88574 3.54784L6.07574 5.78784C6.10574 6.10884 6.36574 6.34884 6.68574 6.34884H20.1907ZM14.1307 11.5478H16.9007C17.3207 11.5478 17.6507 11.2078 17.6507 10.7978C17.6507 10.3778 17.3207 10.0478 16.9007 10.0478H14.1307C13.7107 10.0478 13.3807 10.3778 13.3807 10.7978C13.3807 11.2078 13.7107 11.5478 14.1307 11.5478Z" fill="#130F26"/>
</svg>
