<svg width="24" height="24" viewBox="0 0 24 24" fill="none" xmlns="http://www.w3.org/2000/svg">
<path fill-rule="evenodd" clip-rule="evenodd" d="M6.18542 14.2054C-0.246064 6.91826 2.96968 4.73963 3.25423 4.38547C6.32294 1.27315 6.79895 2.68979 9.2097 5.13672C11.2407 7.20803 8.60781 8.19539 9.68677 10.6531L6.18542 14.2054Z" fill="#130F26"/>
<path fill-rule="evenodd" clip-rule="evenodd" d="M12.0905 13.3823C15.3707 16.0761 16.2958 12.2233 18.6193 14.5843C21.0163 17.0313 22.3946 17.5249 19.3552 20.6265C18.9978 20.9378 16.6953 24.4686 8.7998 16.7415L12.0905 13.3823Z" fill="#130F26"/>
<path opacity="0.4" d="M21.3746 3.85937V3.86954L11.9584 13.5151L3.44417 22.246C3.27567 22.4086 3.06752 22.5 2.84946 22.5C2.6314 22.5 2.42326 22.4086 2.24484 22.246C1.96731 21.9512 1.92767 21.5141 2.11599 21.1889L2.14573 21.1482C2.16555 21.1167 2.18537 21.0873 2.21511 21.0568L20.1753 2.62954C20.324 2.46691 20.542 2.36426 20.77 2.36426C20.998 2.36426 21.216 2.46691 21.3746 2.62954C21.7017 2.97511 21.7017 3.5138 21.3746 3.85937Z" fill="#130F26"/>
</svg>
