<svg width="24" height="24" viewBox="0 0 24 24" fill="none" xmlns="http://www.w3.org/2000/svg">
<path fill-rule="evenodd" clip-rule="evenodd" d="M16.7095 10.0721C16.7095 10.5715 17.1095 10.9711 17.6095 10.9711C18.1095 10.9711 18.5195 10.5715 18.5195 10.0721C18.5195 9.57263 18.1095 9.16309 17.6095 9.16309C17.1095 9.16309 16.7095 9.57263 16.7095 10.0721ZM14.7695 16.1054C14.0595 16.8146 13.0795 17.2541 11.9995 17.2541C10.9495 17.2541 9.96951 16.8446 9.21951 16.1054C8.47951 15.3562 8.06951 14.3773 8.06951 13.3285C8.05951 12.2896 8.46951 11.3107 9.20951 10.5615C9.95951 9.81236 10.9495 9.40282 11.9995 9.40282C13.0495 9.40282 14.0395 9.81236 14.7795 10.5515C15.5195 11.3007 15.9295 12.2896 15.9295 13.3285C15.9195 14.4172 15.4795 15.3962 14.7695 16.1054ZM11.9995 10.9012C11.3495 10.9012 10.7395 11.1509 10.2695 11.6204C9.80951 12.0798 9.55951 12.6892 9.56951 13.3185V13.3285C9.56951 13.9777 9.81951 14.5871 10.2795 15.0465C10.7395 15.506 11.3495 15.7558 11.9995 15.7558C13.3395 15.7558 14.4195 14.667 14.4295 13.3285C14.4295 12.6792 14.1795 12.0699 13.7195 11.6104C13.2595 11.1509 12.6495 10.9012 11.9995 10.9012Z" fill="#130F26"/>
<path opacity="0.4" d="M17.44 6.2364L17.34 6.01665C17.07 5.44728 16.76 4.78801 16.57 4.40844C16.11 3.50943 15.32 3.00999 14.35 3H9.64C8.67 3.00999 7.89 3.50943 7.43 4.40844C7.23 4.80799 6.89 5.52719 6.61 6.11654L6.55 6.2364C6.52 6.31632 6.44 6.35627 6.36 6.35627C3.95 6.35627 2 8.3141 2 10.7114V16.6448C2 19.0422 3.95 21 6.36 21H17.64C20.04 21 22 19.0422 22 16.6448V10.7114C22 8.3141 20.04 6.35627 17.64 6.35627C17.55 6.35627 17.48 6.30633 17.44 6.2364Z" fill="#130F26"/>
</svg>
