<svg width="24" height="24" viewBox="0 0 24 24" fill="none" xmlns="http://www.w3.org/2000/svg">
<path opacity="0.4" d="M16.34 2H7.67C4.28 2 2 4.38 2 7.92V16.09C2 19.62 4.28 22 7.67 22H16.34C19.73 22 22 19.62 22 16.09V7.92C22 4.38 19.73 2 16.34 2Z" fill="#130F26"/>
<path d="M15.0153 13.7705L13.2363 11.9925L15.0143 10.2145C15.3563 9.8735 15.3563 9.3185 15.0143 8.9775C14.6723 8.6335 14.1193 8.6345 13.7773 8.9765L11.9983 10.7545L10.2193 8.9745C9.87734 8.6325 9.32334 8.6345 8.98134 8.9745C8.64034 9.3165 8.64034 9.8715 8.98134 10.2125L10.7613 11.9925L8.98534 13.7675C8.64334 14.1095 8.64334 14.6645 8.98534 15.0045C9.15634 15.1765 9.37934 15.2615 9.60334 15.2615C9.82834 15.2615 10.0513 15.1765 10.2223 15.0055L11.9983 13.2295L13.7783 15.0085C13.9493 15.1795 14.1723 15.2645 14.3963 15.2645C14.6203 15.2645 14.8443 15.1785 15.0153 15.0085C15.3573 14.6665 15.3573 14.1125 15.0153 13.7705Z" fill="#130F26"/>
</svg>
