<svg width="24" height="24" viewBox="0 0 24 24" fill="none" xmlns="http://www.w3.org/2000/svg">
<path opacity="0.4" d="M4.723 21.1675C4.71 21.1675 4.698 21.1675 4.684 21.1665C4.369 21.1505 4.06 21.0825 3.766 20.9635C2.319 20.3755 1.621 18.7225 2.208 17.2765L9.529 4.45049C9.781 3.99449 10.163 3.61249 10.629 3.35449C11.994 2.59849 13.72 3.09549 14.475 4.45949L21.748 17.1875C21.91 17.5685 21.979 17.8785 21.996 18.1945C22.035 18.9505 21.777 19.6755 21.271 20.2365C20.765 20.7975 20.07 21.1285 19.315 21.1665L4.795 21.1675H4.723Z" fill="#130F26"/>
<path fill-rule="evenodd" clip-rule="evenodd" d="M11.125 10.021C11.125 9.539 11.518 9.146 12 9.146C12.482 9.146 12.875 9.539 12.875 10.021V12.849C12.875 13.332 12.482 13.724 12 13.724C11.518 13.724 11.125 13.332 11.125 12.849V10.021ZM11.125 16.2701C11.125 15.7851 11.518 15.3901 12 15.3901C12.482 15.3901 12.875 15.7801 12.875 16.2591C12.875 16.7521 12.482 17.1451 12 17.1451C11.518 17.1451 11.125 16.7521 11.125 16.2701Z" fill="#130F26"/>
</svg>
