<svg width="24" height="24" viewBox="0 0 24 24" fill="none" xmlns="http://www.w3.org/2000/svg">
<path opacity="0.4" fill-rule="evenodd" clip-rule="evenodd" d="M11.9902 3.88184H12C13.3951 3.88184 14.7512 4.21657 16 4.84567L12.7415 8.13491C12.5073 8.09553 12.2537 8.066 12 8.066C9.8439 8.066 8.09756 9.82827 8.09756 12.004C8.09756 12.26 8.12683 12.516 8.16585 12.7523L4.5561 16.3949C3.58049 15.2529 2.73171 13.8736 2.05854 12.2895C1.98049 12.1123 1.98049 11.8957 2.05854 11.7087C4.14634 6.80583 7.86341 3.88184 11.9902 3.88184ZM18.4293 6.54985C19.8439 7.8494 21.0439 9.60183 21.9415 11.7087C22.0195 11.8957 22.0195 12.1123 21.9415 12.2895C19.8537 17.1924 16.1366 20.1262 12 20.1262H11.9902C10.1073 20.1262 8.30244 19.506 6.71219 18.3738L9.80488 15.2529C10.4293 15.6753 11.1902 15.9322 12 15.9322C14.1463 15.9322 15.8927 14.1699 15.8927 12.004C15.8927 11.1869 15.639 10.419 15.2195 9.78889L18.4293 6.54985Z" fill="#130F26"/>
<path fill-rule="evenodd" clip-rule="evenodd" d="M18.4291 6.54952L20.2047 4.75771C20.4974 4.4722 20.4974 3.99964 20.2047 3.71413C19.9218 3.42862 19.4633 3.42862 19.1706 3.71413L18.2535 4.63957C18.2437 4.65926 18.2242 4.67895 18.2047 4.69864C18.195 4.71833 18.1754 4.73802 18.1559 4.75771L17.2876 5.63491L14.195 8.7558L3.72667 19.3186L3.6974 19.358C3.50228 19.6435 3.5413 20.0383 3.7852 20.2844C3.92179 20.4311 4.11691 20.5 4.30228 20.5C4.48764 20.5 4.67301 20.4311 4.81935 20.2844L15.2193 9.78855L18.4291 6.54952ZM11.9999 14.4555C13.3365 14.4555 14.4292 13.3529 14.4292 12.0041C14.4292 11.5906 14.3316 11.1968 14.156 10.8621L10.8682 14.1798C11.1999 14.3571 11.5902 14.4555 11.9999 14.4555Z" fill="#130F26"/>
</svg>
