<svg width="24" height="24" viewBox="0 0 24 24" fill="none" xmlns="http://www.w3.org/2000/svg">
<path opacity="0.4" d="M7.2959 6.446C7.2959 3.995 9.35569 2 11.8873 2H16.9196C19.4451 2 21.4997 3.99 21.4997 6.436V17.552C21.4997 20.004 19.4409 22 16.9093 22H11.877C9.35156 22 7.2959 20.009 7.2959 17.562V16.622V6.446Z" fill="#130F26"/>
<path d="M16.0374 11.4536L13.0695 8.54457C12.7627 8.24457 12.2691 8.24457 11.9634 8.54657C11.6587 8.84857 11.6597 9.33557 11.9654 9.63557L13.5905 11.2286H3.2821C2.85042 11.2286 2.5 11.5736 2.5 11.9996C2.5 12.4246 2.85042 12.7686 3.2821 12.7686H13.5905L11.9654 14.3626C11.6597 14.6626 11.6587 15.1496 11.9634 15.4516C12.1168 15.6026 12.3168 15.6786 12.518 15.6786C12.717 15.6786 12.9171 15.6026 13.0695 15.4536L16.0374 12.5446C16.1847 12.3996 16.268 12.2036 16.268 11.9996C16.268 11.7946 16.1847 11.5986 16.0374 11.4536Z" fill="#130F26"/>
</svg>
