<svg width="24" height="24" viewBox="0 0 24 24" fill="none" xmlns="http://www.w3.org/2000/svg">
<path opacity="0.4" d="M22 12C22 17.524 17.523 22 12 22C6.477 22 2 17.524 2 12C2 6.478 6.477 2 12 2C17.523 2 22 6.478 22 12Z" fill="#130F26"/>
<path fill-rule="evenodd" clip-rule="evenodd" d="M7.52124 10.8037C6.86024 10.8037 6.32324 11.3407 6.32324 11.9997C6.32324 12.6597 6.86024 13.1977 7.52124 13.1977C8.18224 13.1977 8.71924 12.6597 8.71924 11.9997C8.71924 11.3407 8.18224 10.8037 7.52124 10.8037ZM12.0003 10.8037C11.3393 10.8037 10.8023 11.3407 10.8023 11.9997C10.8023 12.6597 11.3393 13.1977 12.0003 13.1977C12.6613 13.1977 13.1983 12.6597 13.1983 11.9997C13.1983 11.3407 12.6613 10.8037 12.0003 10.8037ZM15.2817 11.9997C15.2817 11.3407 15.8187 10.8037 16.4797 10.8037C17.1407 10.8037 17.6777 11.3407 17.6777 11.9997C17.6777 12.6597 17.1407 13.1977 16.4797 13.1977C15.8187 13.1977 15.2817 12.6597 15.2817 11.9997Z" fill="#130F26"/>
</svg>
