<svg width="24" height="24" viewBox="0 0 24 24" fill="none" xmlns="http://www.w3.org/2000/svg">
<path opacity="0.4" d="M16.34 2H7.67C4.28 2 2 4.38 2 7.92V16.09C2 19.62 4.28 22 7.67 22H16.34C19.73 22 22 19.62 22 16.09V7.92C22 4.38 19.73 2 16.34 2Z" fill="#130F26"/>
<path fill-rule="evenodd" clip-rule="evenodd" d="M7.52124 10.8037C6.86024 10.8037 6.32324 11.3407 6.32324 11.9997C6.32324 12.6597 6.86024 13.1977 7.52124 13.1977C8.18224 13.1977 8.71924 12.6597 8.71924 11.9997C8.71924 11.3407 8.18224 10.8037 7.52124 10.8037ZM12.0002 10.8037C11.3392 10.8037 10.8022 11.3407 10.8022 11.9997C10.8022 12.6597 11.3392 13.1977 12.0002 13.1977C12.6612 13.1977 13.1982 12.6597 13.1982 11.9997C13.1982 11.3407 12.6612 10.8037 12.0002 10.8037ZM15.2817 11.9997C15.2817 11.3407 15.8187 10.8037 16.4797 10.8037C17.1407 10.8037 17.6777 11.3407 17.6777 11.9997C17.6777 12.6597 17.1407 13.1977 16.4797 13.1977C15.8187 13.1977 15.2817 12.6597 15.2817 11.9997Z" fill="#130F26"/>
</svg>
