<svg width="24" height="24" viewBox="0 0 24 24" fill="none" xmlns="http://www.w3.org/2000/svg">
<path opacity="0.4" d="M18.8089 9.021C18.3574 9.021 17.7594 9.011 17.0149 9.011C15.199 9.011 13.7059 7.508 13.7059 5.675V2.459C13.7059 2.206 13.503 2 13.2525 2H7.96337C5.49604 2 3.5 4.026 3.5 6.509V17.284C3.5 19.889 5.59109 22 8.1703 22H16.0455C18.5059 22 20.5 19.987 20.5 17.502V9.471C20.5 9.217 20.298 9.012 20.0465 9.013C19.6238 9.016 19.1168 9.021 18.8089 9.021Z" fill="#130F26"/>
<path opacity="0.4" d="M16.0837 2.56737C15.7857 2.25637 15.2627 2.47037 15.2627 2.90137V5.53837C15.2627 6.64437 16.1737 7.55437 17.2797 7.55437C17.9767 7.56237 18.9447 7.56437 19.7677 7.56237C20.1877 7.56137 20.4017 7.05837 20.1097 6.75437C19.0547 5.65737 17.1657 3.69137 16.0837 2.56737Z" fill="#130F26"/>
<path d="M14.3667 14.5691H9.42371C9.01271 14.5691 8.67871 14.2361 8.67871 13.8251C8.67871 13.4141 9.01271 13.0801 9.42371 13.0801H14.3667C14.7777 13.0801 15.1117 13.4141 15.1117 13.8251C15.1117 14.2361 14.7777 14.5691 14.3667 14.5691Z" fill="#130F26"/>
</svg>
