<svg width="24" height="24" viewBox="0 0 24 24" fill="none" xmlns="http://www.w3.org/2000/svg">
<path opacity="0.4" d="M18.8088 9.021C18.3573 9.021 17.7592 9.011 17.0146 9.011C15.1987 9.011 13.7055 7.508 13.7055 5.675V2.459C13.7055 2.206 13.5026 2 13.253 2H7.96363C5.49517 2 3.5 4.026 3.5 6.509V17.284C3.5 19.889 5.59022 22 8.16958 22H16.0453C18.5058 22 20.5 19.987 20.5 17.502V9.471C20.5 9.217 20.298 9.012 20.0465 9.013C19.6247 9.016 19.1168 9.021 18.8088 9.021Z" fill="#130F26"/>
<path opacity="0.4" d="M16.0837 2.56737C15.7847 2.25637 15.2627 2.47037 15.2627 2.90137V5.53837C15.2627 6.64437 16.1737 7.55437 17.2787 7.55437C17.9767 7.56237 18.9447 7.56437 19.7667 7.56237C20.1877 7.56137 20.4017 7.05837 20.1097 6.75437C19.0547 5.65737 17.1657 3.69137 16.0837 2.56737Z" fill="#130F26"/>
<path d="M14.3677 12.2362H12.6397V10.5092C12.6397 10.0982 12.3067 9.76416 11.8957 9.76416C11.4847 9.76416 11.1507 10.0982 11.1507 10.5092V12.2362H9.42369C9.01269 12.2362 8.67969 12.5702 8.67969 12.9812C8.67969 13.3922 9.01269 13.7262 9.42369 13.7262H11.1507V15.4522C11.1507 15.8632 11.4847 16.1972 11.8957 16.1972C12.3067 16.1972 12.6397 15.8632 12.6397 15.4522V13.7262H14.3677C14.7787 13.7262 15.1127 13.3922 15.1127 12.9812C15.1127 12.5702 14.7787 12.2362 14.3677 12.2362Z" fill="#130F26"/>
</svg>
