<svg width="24" height="24" viewBox="0 0 24 24" fill="none" xmlns="http://www.w3.org/2000/svg">
<path opacity="0.4" d="M18.8088 9.021C18.3573 9.021 17.7592 9.011 17.0146 9.011C15.1987 9.011 13.7055 7.508 13.7055 5.675V2.459C13.7055 2.206 13.5036 2 13.253 2H7.96363C5.49517 2 3.5 4.026 3.5 6.509V17.284C3.5 19.889 5.59022 22 8.16958 22H16.0463C18.5058 22 20.5 19.987 20.5 17.502V9.471C20.5 9.217 20.299 9.012 20.0475 9.013C19.6247 9.016 19.1177 9.021 18.8088 9.021Z" fill="#130F26"/>
<path opacity="0.4" d="M16.0837 2.56737C15.7847 2.25637 15.2627 2.47037 15.2627 2.90137V5.53837C15.2627 6.64437 16.1737 7.55437 17.2797 7.55437C17.9767 7.56237 18.9447 7.56437 19.7667 7.56237C20.1877 7.56137 20.4017 7.05837 20.1097 6.75437C19.0547 5.65737 17.1657 3.69137 16.0837 2.56737Z" fill="#130F26"/>
<path fill-rule="evenodd" clip-rule="evenodd" d="M8.97349 11.3874H12.3585C12.7695 11.3874 13.1035 11.0544 13.1035 10.6434C13.1035 10.2324 12.7695 9.89844 12.3585 9.89844H8.97349C8.56249 9.89844 8.22949 10.2324 8.22949 10.6434C8.22949 11.0544 8.56249 11.3874 8.97349 11.3874ZM8.97359 16.3816H14.4176C14.8286 16.3816 15.1626 16.0486 15.1626 15.6376C15.1626 15.2266 14.8286 14.8926 14.4176 14.8926H8.97359C8.56259 14.8926 8.22959 15.2266 8.22959 15.6376C8.22959 16.0486 8.56259 16.3816 8.97359 16.3816Z" fill="#130F26"/>
</svg>
