<svg width="24" height="24" viewBox="0 0 24 24" fill="none" xmlns="http://www.w3.org/2000/svg">
<path opacity="0.4" d="M16.334 2H7.665C4.276 2 2 4.378 2 7.917V16.084C2 19.622 4.276 22 7.665 22H16.333C19.722 22 22 19.622 22 16.084V7.917C22 4.378 19.723 2 16.334 2Z" fill="#130F26"/>
<path fill-rule="evenodd" clip-rule="evenodd" d="M11.3134 11.2489H17.0134C17.4234 11.2489 17.7634 11.5889 17.7634 11.9989V13.8489C17.7634 14.2689 17.4234 14.5989 17.0134 14.5989C16.5934 14.5989 16.2634 14.2689 16.2634 13.8489V12.7489H14.9334V13.8489C14.9334 14.2689 14.5934 14.5989 14.1834 14.5989C13.7634 14.5989 13.4334 14.2689 13.4334 13.8489V12.7489H11.3134C10.9934 13.8189 10.0134 14.5989 8.8434 14.5989C7.4034 14.5989 6.2334 13.4389 6.2334 11.9989C6.2334 10.5689 7.4034 9.39893 8.8434 9.39893C10.0134 9.39893 10.9934 10.1789 11.3134 11.2489ZM7.7334 11.9989C7.7334 12.6089 8.2334 13.0989 8.8434 13.0989C9.4434 13.0989 9.9434 12.6089 9.9434 11.9989C9.9434 11.3889 9.4434 10.8989 8.8434 10.8989C8.2334 10.8989 7.7334 11.3889 7.7334 11.9989Z" fill="#130F26"/>
</svg>
