<svg width="24" height="24" viewBox="0 0 24 24" fill="none" xmlns="http://www.w3.org/2000/svg">
<path opacity="0.4" d="M6.70506 12.8906C6.18895 12.8906 5.77114 13.3146 5.77114 13.8384L5.51367 18.4172C5.51367 19.0847 6.04734 19.6251 6.70506 19.6251C7.36279 19.6251 7.89529 19.0847 7.89529 18.4172L7.63898 13.8384C7.63898 13.3146 7.22118 12.8906 6.70506 12.8906Z" fill="#130F26"/>
<path d="M7.98037 3.67345C7.98037 3.67345 7.71236 3.39789 7.54618 3.27793C7.30509 3.09264 7.00783 3 6.71173 3C6.37936 3 6.07039 3.10452 5.81877 3.30169C5.77313 3.34801 5.57886 3.5226 5.41852 3.68532C4.41204 4.6367 2.76539 7.12026 2.26215 8.42083C2.18257 8.618 2.01053 9.11685 2 9.38409C2 9.63827 2.05618 9.88294 2.17087 10.1145C2.3312 10.4044 2.58282 10.6372 2.88009 10.7642C3.08606 10.8462 3.70282 10.9733 3.71453 10.9733C4.38981 11.1016 5.48757 11.1704 6.70003 11.1704C7.85514 11.1704 8.90727 11.1016 9.59308 10.997C9.60478 10.9852 10.3702 10.8581 10.6335 10.7179C11.1133 10.4626 11.4118 9.96371 11.4118 9.43041V9.38409C11.4001 9.03608 11.1016 8.30444 11.0911 8.30444C10.5879 7.07394 9.02079 4.64858 7.98037 3.67345Z" fill="#130F26"/>
<path opacity="0.4" d="M17.2949 11.1096C17.811 11.1096 18.2288 10.6856 18.2288 10.1618L18.4851 5.58296C18.4851 4.91543 17.9526 4.375 17.2949 4.375C16.6372 4.375 16.1035 4.91543 16.1035 5.58296L16.361 10.1618C16.361 10.6856 16.7788 11.1096 17.2949 11.1096Z" fill="#130F26"/>
<path d="M21.8288 13.8855C21.6685 13.5957 21.4168 13.3641 21.1196 13.2358C20.9136 13.1538 20.2957 13.0268 20.2851 13.0268C19.6098 12.8985 18.5121 12.8296 17.2996 12.8296C16.1445 12.8296 15.0924 12.8985 14.4066 13.003C14.3949 13.0149 13.6295 13.1432 13.3662 13.2821C12.8852 13.5375 12.5879 14.0364 12.5879 14.5709V14.6172C12.5996 14.9652 12.8969 15.6957 12.9086 15.6957C13.4118 16.9262 14.9777 19.3528 16.0193 20.3267C16.0193 20.3267 16.2873 20.6023 16.4535 20.7211C16.6934 20.9076 16.9907 21.0002 17.2891 21.0002C17.6203 21.0002 17.9281 20.8957 18.1809 20.6985C18.2265 20.6522 18.4208 20.4776 18.5811 20.3161C19.5864 19.3635 21.2343 16.8799 21.7363 15.5804C21.8171 15.3833 21.9891 14.8832 21.9997 14.6172C21.9997 14.3618 21.9435 14.1171 21.8288 13.8855Z" fill="#130F26"/>
</svg>
