<svg width="24" height="24" viewBox="0 0 24 24" fill="none" xmlns="http://www.w3.org/2000/svg">
<path opacity="0.4" d="M13.7505 9.70303V7.68318C13.354 7.68318 13.0251 7.36377 13.0251 6.97859V4.57356C13.0251 4.2532 12.764 4.00049 12.4352 4.00049H5.7911C3.70213 4.00049 2 5.653 2 7.68318V10.1155C2 10.3043 2.07737 10.4828 2.21277 10.6143C2.34816 10.7449 2.53191 10.8201 2.72534 10.8201C3.46035 10.8201 4.02128 11.3274 4.02128 11.9944C4.02128 12.6905 3.45068 13.2448 2.73501 13.2533C2.33849 13.2533 2 13.5257 2 13.9203V16.3262C2 18.3555 3.70213 19.9995 5.78143 19.9995H12.4352C12.764 19.9995 13.0251 19.745 13.0251 19.4265V17.3963C13.0251 17.0027 13.354 16.6917 13.7505 16.6917V14.8701C13.354 14.8701 13.0251 14.5497 13.0251 14.1655V10.4076C13.0251 10.0224 13.354 9.70303 13.7505 9.70303Z" fill="#130F26"/>
<path d="M19.9782 11.9948C19.9782 12.69 20.5585 13.2443 21.2645 13.2537C21.661 13.2537 21.9995 13.5262 21.9995 13.9113V16.3258C21.9995 18.3559 20.3071 20 18.2181 20H15.0653C14.7461 20 14.4753 19.7454 14.4753 19.426V17.3967C14.4753 17.0022 14.1562 16.6921 13.75 16.6921V14.8705C14.1562 14.8705 14.4753 14.5502 14.4753 14.1659V10.4081C14.4753 10.022 14.1562 9.70348 13.75 9.70348V7.6827C14.1562 7.6827 14.4753 7.36328 14.4753 6.9781V4.57401C14.4753 4.25366 14.7461 4 15.0653 4H18.2181C20.3071 4 21.9995 5.64406 21.9995 7.6733V10.0407C21.9995 10.2286 21.9221 10.4081 21.7868 10.5387C21.6514 10.6702 21.4676 10.7453 21.2742 10.7453C20.5585 10.7453 19.9782 11.31 19.9782 11.9948Z" fill="#130F26"/>
</svg>
