<svg width="24" height="24" viewBox="0 0 24 24" fill="none" xmlns="http://www.w3.org/2000/svg">
<path opacity="0.4" d="M22 12C22 17.524 17.523 22 12 22C6.477 22 2 17.524 2 12C2 6.478 6.477 2 12 2C17.523 2 22 6.478 22 12Z" fill="#130F26"/>
<path d="M15.5734 15.8143C15.4424 15.8143 15.3104 15.7803 15.1894 15.7093L11.2634 13.3673C11.0374 13.2313 10.8984 12.9863 10.8984 12.7223V7.67529C10.8984 7.26129 11.2344 6.92529 11.6484 6.92529C12.0624 6.92529 12.3984 7.26129 12.3984 7.67529V12.2963L15.9584 14.4193C16.3134 14.6323 16.4304 15.0923 16.2184 15.4483C16.0774 15.6833 15.8284 15.8143 15.5734 15.8143Z" fill="#130F26"/>
</svg>
