<svg width="24" height="24" viewBox="0 0 24 24" fill="none" xmlns="http://www.w3.org/2000/svg">
<path opacity="0.4" fill-rule="evenodd" clip-rule="evenodd" d="M15.8577 7.55612C15.8759 7.68943 15.8931 7.81499 15.9022 7.98118L6.28989 17.5924H6.06758C4.6596 17.5924 3.63273 16.5974 3.44218 15.052C3.23046 13.5066 3.2728 10.8603 3.44218 9.4525C3.64332 7.99176 4.72312 6.98618 6.06758 6.98618H7.89901L11.3925 4.12717C11.8159 3.76833 12.5676 3.42961 13.1498 3.41797C14.2084 3.41797 15.1824 4.15998 15.5317 5.3455C15.6693 5.84194 15.7223 6.3405 15.7646 6.81576L15.8493 7.49426C15.8521 7.51518 15.8549 7.53574 15.8577 7.55612ZM14.8806 13.7313C15.0245 13.5905 15.3432 13.491 15.4872 13.527C15.8767 13.6265 15.9519 14.1843 15.9466 14.6225C15.9286 15.8949 15.8852 16.7798 15.8174 17.327L15.7698 17.7779L15.769 17.7864C15.7237 18.24 15.6769 18.7093 15.5433 19.2101C15.1897 20.3935 14.2443 21.162 13.1709 21.162C13.1349 21.162 13.0999 21.162 13.0639 21.1609C12.4711 21.1609 11.8264 20.8053 11.4612 20.4951L10.1601 19.4885C9.66681 19.1212 9.81184 18.5337 10.0892 18.1939C10.2963 17.9411 12.7841 15.6578 14.0919 14.4575C14.536 14.0499 14.8441 13.7672 14.8806 13.7313Z" fill="#130F26"/>
<path d="M21.7275 3.26979C21.3538 2.90884 20.7801 2.91095 20.4201 3.27085L3.27035 20.4186C2.90936 20.7795 2.90936 21.3543 3.27352 21.7322C3.45984 21.9047 3.69062 22 3.92458 22C4.16383 22 4.40943 21.8994 4.57987 21.729L21.7286 4.58127C22.0906 4.21926 22.0906 3.63285 21.7275 3.26979Z" fill="#130F26"/>
</svg>
