<svg width="24" height="24" viewBox="0 0 24 24" fill="none" xmlns="http://www.w3.org/2000/svg">
<path d="M15.3716 6.45056C15.3212 5.96422 15.2687 5.45963 15.1396 4.95611C14.7879 3.75153 13.8136 3.00001 12.7691 3.00001C12.1864 2.99786 11.4494 3.35644 11.0316 3.71932L7.56822 6.61697H5.75517C4.42084 6.61697 3.34792 7.6444 3.1453 9.12705C2.97313 10.5506 2.93114 13.2379 3.1453 14.8042C3.33112 16.3706 4.35575 17.383 5.75517 17.383H7.56822L11.0988 20.3236C11.461 20.6382 12.1003 20.9989 12.6882 20.9989C12.726 21 12.7596 21 12.7932 21C13.8577 21 14.7952 20.2206 15.1469 19.0192C15.2802 18.5082 15.3264 18.0293 15.3716 17.5666L15.4188 17.1082C15.5994 15.6213 15.5994 8.36908 15.4188 6.89288L15.3716 6.45056Z" fill="#130F26"/>
<path opacity="0.4" d="M19.4263 6.49442C19.1397 6.07035 18.5665 5.96514 18.1476 6.25823C17.7319 6.55455 17.629 7.14073 17.9177 7.56588C18.7208 8.74898 19.1628 10.3229 19.1628 11.9998C19.1628 13.6757 18.7208 15.2507 17.9177 16.4338C17.629 16.859 17.7319 17.4451 18.1476 17.7415C18.302 17.851 18.4836 17.9089 18.6715 17.9089C18.9728 17.9089 19.2542 17.7576 19.4263 17.5053C20.4405 16.0119 21 14.0569 21 11.9998C21 9.94283 20.4405 7.9878 19.4263 6.49442Z" fill="#130F26"/>
</svg>
