<svg width="24" height="24" viewBox="0 0 24 24" fill="none" xmlns="http://www.w3.org/2000/svg">
<path fill-rule="evenodd" clip-rule="evenodd" d="M9.877 15.2065C6.033 15.2065 2.75 15.7875 2.75 18.1155C2.75 20.4435 6.013 21.0455 9.877 21.0455C13.722 21.0455 17.004 20.4635 17.004 18.1365C17.004 15.8095 13.742 15.2065 9.877 15.2065Z" stroke="#130F26" stroke-width="1.5" stroke-linecap="round" stroke-linejoin="round"/>
<path fill-rule="evenodd" clip-rule="evenodd" d="M9.8766 11.886C12.3996 11.886 14.4446 9.841 14.4446 7.318C14.4446 4.795 12.3996 2.75 9.8766 2.75C7.3546 2.75 5.3096 4.795 5.3096 7.318C5.3006 9.832 7.3306 11.877 9.8456 11.886H9.8766Z" stroke="#130F26" stroke-width="1.5" stroke-linecap="round" stroke-linejoin="round"/>
<path d="M19.2041 8.66943V12.6794" stroke="#130F26" stroke-width="1.5" stroke-linecap="round" stroke-linejoin="round"/>
<path d="M21.2502 10.6743H17.1602" stroke="#130F26" stroke-width="1.5" stroke-linecap="round" stroke-linejoin="round"/>
</svg>
