<svg width="24" height="24" viewBox="0 0 24 24" fill="none" xmlns="http://www.w3.org/2000/svg">
<path d="M4.79476 7.05613C4.79476 5.80713 5.80676 4.79513 7.05576 4.79413H8.08476C8.68176 4.79413 9.25376 4.55713 9.67776 4.13713L10.3968 3.41713C11.2778 2.53113 12.7098 2.52713 13.5958 3.40813L13.5968 3.40913L13.6058 3.41713L14.3258 4.13713C14.7498 4.55813 15.3218 4.79413 15.9188 4.79413H16.9468C18.1958 4.79413 19.2088 5.80613 19.2088 7.05613V8.08313C19.2088 8.68013 19.4448 9.25313 19.8658 9.67713L20.5858 10.3971C21.4718 11.2781 21.4768 12.7101 20.5958 13.5961L20.5948 13.5971L20.5858 13.6061L19.8658 14.3261C19.4448 14.7491 19.2088 15.3211 19.2088 15.9181V16.9471C19.2088 18.1961 18.1968 19.2081 16.9478 19.2081H16.9468H15.9168C15.3198 19.2081 14.7468 19.4451 14.3238 19.8661L13.6038 20.5851C12.7238 21.4711 11.2928 21.4761 10.4068 20.5971C10.4058 20.5961 10.4048 20.5951 10.4038 20.5941L10.3948 20.5851L9.67576 19.8661C9.25276 19.4451 8.67976 19.2091 8.08276 19.2081H7.05576C5.80676 19.2081 4.79476 18.1961 4.79476 16.9471V15.9161C4.79476 15.3191 4.55776 14.7471 4.13676 14.3241L3.41776 13.6041C2.53176 12.7241 2.52676 11.2931 3.40676 10.4071C3.40676 10.4061 3.40776 10.4051 3.40876 10.4041L3.41776 10.3951L4.13676 9.67513C4.55776 9.25113 4.79476 8.67913 4.79476 8.08113V7.05613" stroke="#130F26" stroke-width="1.5" stroke-linecap="round" stroke-linejoin="round"/>
<path d="M9.43164 14.5716L14.5716 9.43164" stroke="#130F26" stroke-width="1.5" stroke-linecap="round" stroke-linejoin="round"/>
<path d="M14.4955 14.5H14.5045" stroke="#130F26" stroke-width="2" stroke-linecap="round" stroke-linejoin="round"/>
<path d="M9.4955 9.5H9.5045" stroke="#130F26" stroke-width="2" stroke-linecap="round" stroke-linejoin="round"/>
</svg>
