<svg width="24" height="24" viewBox="0 0 24 24" fill="none" xmlns="http://www.w3.org/2000/svg">
<path fill-rule="evenodd" clip-rule="evenodd" d="M17.857 20.417C19.73 20.417 21.249 18.899 21.25 17.026V17.024V14.324C20.013 14.324 19.011 13.322 19.01 12.085C19.01 10.849 20.012 9.846 21.249 9.846H21.25V7.146C21.252 5.272 19.735 3.752 17.862 3.75H17.856H6.144C4.27 3.75 2.751 5.268 2.75 7.142V7.143V9.933C3.944 9.891 4.945 10.825 4.987 12.019C4.988 12.041 4.989 12.063 4.989 12.085C4.99 13.32 3.991 14.322 2.756 14.324H2.75V17.024C2.749 18.897 4.268 20.417 6.141 20.417H6.142H17.857Z" stroke="#130F26" stroke-width="1.5" stroke-linecap="round" stroke-linejoin="round"/>
<path fill-rule="evenodd" clip-rule="evenodd" d="M12.3716 9.06303L12.9876 10.31C13.0476 10.432 13.1636 10.517 13.2986 10.537L14.6756 10.738C15.0166 10.788 15.1516 11.206 14.9056 11.445L13.9096 12.415C13.8116 12.51 13.7676 12.647 13.7896 12.782L14.0246 14.152C14.0826 14.491 13.7276 14.749 13.4236 14.589L12.1926 13.942C12.0716 13.878 11.9276 13.878 11.8066 13.942L10.5766 14.589C10.2716 14.749 9.91658 14.491 9.97458 14.152L10.2096 12.782C10.2326 12.647 10.1876 12.51 10.0896 12.415L9.09458 11.445C8.84858 11.206 8.98358 10.788 9.32358 10.738L10.7006 10.537C10.8356 10.517 10.9526 10.432 11.0126 10.31L11.6276 9.06303C11.7796 8.75503 12.2196 8.75503 12.3716 9.06303Z" stroke="#130F26" stroke-width="1.5" stroke-linecap="round" stroke-linejoin="round"/>
</svg>
