<svg width="24" height="24" viewBox="0 0 24 24" fill="none" xmlns="http://www.w3.org/2000/svg">
<path fill-rule="evenodd" clip-rule="evenodd" d="M14.5331 9.46704L7.71375 16.2869C7.53651 16.1842 7.36859 16.1189 7.21933 16.1096C5.92263 16.0163 5.41888 16.1656 4.7099 15.5592C3.94494 14.9061 4.00091 13.1615 4.00091 11.8834C4.00091 10.6052 3.94494 8.86063 4.7099 8.20757C5.41888 7.60115 5.92263 7.75975 7.21933 7.65713C8.51603 7.55451 11.2587 3.59882 13.3763 4.84897C14.2345 5.54868 14.4678 6.8548 14.5331 9.46704Z" stroke="#130F26" stroke-width="1.5" stroke-linecap="round" stroke-linejoin="round"/>
<path d="M14.5334 13.917C14.4961 16.7905 14.2722 18.1899 13.3766 18.9176C12.3971 19.496 11.287 18.9642 10.2422 18.2085" stroke="#130F26" stroke-width="1.5" stroke-linecap="round" stroke-linejoin="round"/>
<path d="M4.00098 20L7.71382 16.2869L14.5331 9.46706L19.9998 4" stroke="#130F26" stroke-width="1.5" stroke-linecap="round" stroke-linejoin="round"/>
</svg>
