<svg width="53" height="52" viewBox="0 0 53 52" fill="none" xmlns="http://www.w3.org/2000/svg">
<path style="color: #97A5EB" d="M22.5071 12.0369C22.6174 12.2615 22.6903 12.502 22.7229 12.7493L23.3262 21.7191L23.6257 26.2276C23.6288 26.6912 23.7015 27.1519 23.8416 27.5947C24.2032 28.4538 25.0733 28.9998 26.0199 28.9618L40.444 28.0183C41.0686 28.008 41.6718 28.2416 42.1208 28.6677C42.495 29.0228 42.7366 29.4873 42.8127 29.9869L42.8382 30.2903C42.2413 38.5555 36.171 45.4493 27.9229 47.2289C19.6748 49.0085 11.2168 45.2492 7.14098 37.9922C5.96595 35.8839 5.23202 33.5665 4.98227 31.176C4.87794 30.4684 4.832 29.7537 4.8449 29.0388C4.83201 20.1775 11.1423 12.5167 19.9755 10.6698C21.0386 10.5043 22.0808 11.0671 22.5071 12.0369Z" fill="#97A5EB"/>
<path style="color: #FFCC91" opacity="0.4" d="M28.3944 4.33527C38.2741 4.58662 46.5777 11.691 48.176 21.2601L48.1607 21.3307L48.1171 21.4334L48.1232 21.7153C48.1006 22.0887 47.9564 22.448 47.7079 22.7382C47.4491 23.0405 47.0955 23.2464 46.7061 23.3263L46.4687 23.3589L29.827 24.4371C29.2734 24.4917 28.7222 24.3132 28.3106 23.9461C27.9675 23.6401 27.7482 23.227 27.6863 22.782L26.5693 6.16446C26.5498 6.10827 26.5498 6.04736 26.5693 5.99117C26.5845 5.53312 26.7862 5.10015 27.1291 4.78899C27.4721 4.47784 27.9277 4.31443 28.3944 4.33527Z" fill="#FFCC91"/>
</svg>
