<svg width="16" height="16" viewBox="0 0 16 16" fill="none" xmlns="http://www.w3.org/2000/svg">
<path d="M14 5.1665H2C1.72667 5.1665 1.5 4.93984 1.5 4.6665C1.5 4.39317 1.72667 4.1665 2 4.1665H14C14.2733 4.1665 14.5 4.39317 14.5 4.6665C14.5 4.93984 14.2733 5.1665 14 5.1665Z" fill="#00092E"/>
<path d="M12 8.5H4C3.72667 8.5 3.5 8.27333 3.5 8C3.5 7.72667 3.72667 7.5 4 7.5H12C12.2733 7.5 12.5 7.72667 12.5 8C12.5 8.27333 12.2733 8.5 12 8.5Z" fill="#00092E"/>
<path d="M9.33366 11.8335H6.66699C6.39366 11.8335 6.16699 11.6068 6.16699 11.3335C6.16699 11.0602 6.39366 10.8335 6.66699 10.8335H9.33366C9.60699 10.8335 9.83366 11.0602 9.83366 11.3335C9.83366 11.6068 9.60699 11.8335 9.33366 11.8335Z" fill="#00092E"/>
</svg>
