<svg width="24" height="24" viewBox="0 0 24 24" fill="none" xmlns="http://www.w3.org/2000/svg">
<g clip-path="url(#clip0_2_14501)">
<path d="M5.19042 12.8101C3.50628 10.2131 2.45478 7.25726 2.12042 4.1801C2.09543 3.90356 2.1283 3.62486 2.21692 3.36172C2.30555 3.09859 2.44799 2.85679 2.63519 2.65172C2.82238 2.44665 3.05023 2.28281 3.30421 2.17062C3.5582 2.05843 3.83276 2.00036 4.11042 2.0001H7.11042C7.59573 1.99532 8.06621 2.16718 8.43418 2.48363C8.80215 2.80008 9.0425 3.23954 9.11042 3.7201C9.23704 4.68016 9.47187 5.62282 9.81042 6.5301C9.94497 6.88802 9.97408 7.27701 9.89433 7.65098C9.81457 8.02494 9.62928 8.36821 9.36042 8.6401L8.09042 9.9101M10.6804 13.3101C11.6953 14.3258 12.8422 15.2004 14.0904 15.9101L15.3604 14.6401C15.6323 14.3712 15.9756 14.1859 16.3495 14.1062C16.7235 14.0264 17.1125 14.0556 17.4704 14.1901C18.3777 14.5286 19.3204 14.7635 20.2804 14.8901C20.761 14.958 21.2004 15.1984 21.5169 15.5663C21.8333 15.9343 22.0052 16.4048 22.0004 16.8901V19.8901C22.0016 20.1686 21.9445 20.4443 21.8329 20.6994C21.7214 20.9546 21.5577 21.1837 21.3525 21.372C21.1473 21.5602 20.905 21.7036 20.6412 21.7928C20.3773 21.882 20.0978 21.9152 19.8204 21.8901C16.7433 21.5557 13.7874 20.5042 11.1904 18.8201C9.98569 18.0552 8.86895 17.1597 7.86042 16.1501L10.6804 13.3101Z" stroke="black" stroke-width="2" stroke-linecap="round" stroke-linejoin="round"/>
<path d="M23 1L1 23" stroke="black" stroke-width="2" stroke-linecap="round" stroke-linejoin="round"/>
</g>
<defs>
<clipPath id="clip0_2_14501">
<rect width="24" height="24" fill="white"/>
</clipPath>
</defs>
</svg>
