<svg width="24" height="24" viewBox="0 0 24 24" fill="none" xmlns="http://www.w3.org/2000/svg">
<path d="M14.7003 6.30022C14.5171 6.48715 14.4145 6.73847 14.4145 7.00022C14.4145 7.26198 14.5171 7.5133 14.7003 7.70022L16.3003 9.30022C16.4873 9.48345 16.7386 9.58608 17.0003 9.58608C17.2621 9.58608 17.5134 9.48345 17.7003 9.30022L21.4703 5.53022C21.9732 6.64141 22.1254 7.87946 21.9068 9.07937C21.6882 10.2793 21.1091 11.3841 20.2466 12.2465C19.3842 13.1089 18.2794 13.6881 17.0795 13.9067C15.8796 14.1253 14.6415 13.9731 13.5303 13.4702L6.62034 20.3802C6.22252 20.778 5.68295 21.0015 5.12034 21.0015C4.55773 21.0015 4.01817 20.778 3.62034 20.3802C3.22252 19.9824 2.99902 19.4428 2.99902 18.8802C2.99902 18.3176 3.22252 17.778 3.62034 17.3802L10.5303 10.4702C10.0275 9.35904 9.87526 8.12099 10.0939 6.92108C10.3125 5.72117 10.8916 4.61638 11.7541 3.75395C12.6165 2.89151 13.7213 2.31239 14.9212 2.09377C16.1211 1.87514 17.3592 2.02739 18.4703 2.53022L14.7103 6.29022L14.7003 6.30022Z" stroke="black" stroke-width="2" stroke-linecap="round" stroke-linejoin="round"/>
</svg>
